<svg width="24" height="24" viewBox="0 0 24 24" fill="none" xmlns="http://www.w3.org/2000/svg">
<g clip-path="url(#clip0)">
<path d="M19.5 7.5L20.5 3.5L16.5 4.5L8.5 12.5L11.5 15.5L19.5 7.5Z" fill="white"/>
<path d="M20.5 3.5L20.9851 3.62127C21.0277 3.45088 20.9777 3.27064 20.8536 3.14645C20.7294 3.02226 20.5491 2.97233 20.3787 3.01493L20.5 3.5ZM19.5 7.5L19.8536 7.85355C19.9176 7.78947 19.9631 7.70918 19.9851 7.62127L19.5 7.5ZM11.5 15.5L11.1464 15.8536L11.5 16.2071L11.8536 15.8536L11.5 15.5ZM8.5 12.5L8.14645 12.1464L7.79289 12.5L8.14645 12.8536L8.5 12.5ZM16.5 4.5L16.3787 4.01493C16.2908 4.03691 16.2105 4.08237 16.1464 4.14645L16.5 4.5ZM20.0149 3.37873L19.0149 7.37873L19.9851 7.62127L20.9851 3.62127L20.0149 3.37873ZM19.1464 7.14645L11.1464 15.1464L11.8536 15.8536L19.8536 7.85355L19.1464 7.14645ZM11.8536 15.1464L8.85355 12.1464L8.14645 12.8536L11.1464 15.8536L11.8536 15.1464ZM8.85355 12.8536L16.8536 4.85355L16.1464 4.14645L8.14645 12.1464L8.85355 12.8536ZM16.6213 4.98507L20.6213 3.98507L20.3787 3.01493L16.3787 4.01493L16.6213 4.98507Z" fill="white"/>
<path d="M7 14L10 17L8.5 18.5L5.5 15.5L7 14Z" fill="white"/>
<path d="M10 17L10.3536 17.3536L10.7071 17L10.3536 16.6464L10 17ZM7 14L7.35355 13.6464L7 13.2929L6.64645 13.6464L7 14ZM5.5 15.5L5.14645 15.1464C5.05268 15.2402 5 15.3674 5 15.5C5 15.6326 5.05268 15.7598 5.14645 15.8536L5.5 15.5ZM8.5 18.5L8.14645 18.8536C8.24022 18.9473 8.36739 19 8.5 19C8.63261 19 8.75979 18.9473 8.85355 18.8536L8.5 18.5ZM10.3536 16.6464L7.35355 13.6464L6.64645 14.3536L9.64645 17.3536L10.3536 16.6464ZM6.64645 13.6464L5.14645 15.1464L5.85355 15.8536L7.35355 14.3536L6.64645 13.6464ZM5.14645 15.8536L8.14645 18.8536L8.85355 18.1464L5.85355 15.1464L5.14645 15.8536ZM8.85355 18.8536L10.3536 17.3536L9.64645 16.6464L8.14645 18.1464L8.85355 18.8536Z" fill="white"/>
<line x1="2.01987" y1="18.5069" x2="1.02673" y2="18.39" stroke="white" stroke-opacity="0.8" stroke-width="2" stroke-linecap="round"/>
<line x1="2.97431" y1="16.2201" x2="2.35469" y2="15.4352" stroke="white" stroke-opacity="0.8" stroke-width="2" stroke-linecap="round"/>
<path d="M2.85974 20.7377L1.74972 21.6139" stroke="white" stroke-opacity="0.8" stroke-width="2" stroke-linecap="round"/>
<path d="M5.28416 21.5264L5.16729 22.5196" stroke="white" stroke-opacity="0.8" stroke-width="2" stroke-linecap="round"/>
<path d="M7.81801 21.3855L8.25614 21.9405" stroke="white" stroke-opacity="0.8" stroke-width="2" stroke-linecap="round"/>
</g>
<defs>
<clipPath id="clip0">
<rect width="24" height="24" fill="white"/>
</clipPath>
</defs>
</svg>
