<svg width="24" height="24" viewBox="0 0 24 24" fill="none" xmlns="http://www.w3.org/2000/svg">
<path d="M7.5 13.5L6.5 17.5L10.5 16.5L18.5 8.5L15.5 5.5L7.5 13.5Z" fill="white"/>
<path d="M6.5 17.5L6.01493 17.3787C5.97233 17.5491 6.02226 17.7294 6.14645 17.8536C6.27064 17.9777 6.45088 18.0277 6.62127 17.9851L6.5 17.5ZM7.5 13.5L7.14645 13.1464C7.08237 13.2105 7.03691 13.2908 7.01493 13.3787L7.5 13.5ZM15.5 5.5L15.8536 5.14645L15.5 4.79289L15.1464 5.14645L15.5 5.5ZM18.5 8.5L18.8536 8.85355L19.2071 8.5L18.8536 8.14645L18.5 8.5ZM10.5 16.5L10.6213 16.9851C10.7092 16.9631 10.7895 16.9176 10.8536 16.8536L10.5 16.5ZM6.98507 17.6213L7.98507 13.6213L7.01493 13.3787L6.01493 17.3787L6.98507 17.6213ZM7.85355 13.8536L15.8536 5.85355L15.1464 5.14645L7.14645 13.1464L7.85355 13.8536ZM15.1464 5.85355L18.1464 8.85355L18.8536 8.14645L15.8536 5.14645L15.1464 5.85355ZM18.1464 8.14645L10.1464 16.1464L10.8536 16.8536L18.8536 8.85355L18.1464 8.14645ZM10.3787 16.0149L6.37873 17.0149L6.62127 17.9851L10.6213 16.9851L10.3787 16.0149Z" fill="white"/>
<path d="M20 7L17 4L18.5 2.5L21.5 5.5L20 7Z" fill="white"/>
<path d="M17 4L16.6464 3.64645L16.2929 4L16.6464 4.35355L17 4ZM20 7L19.6464 7.35355L20 7.70711L20.3536 7.35355L20 7ZM21.5 5.5L21.8536 5.85355C22.0488 5.65829 22.0488 5.34171 21.8536 5.14645L21.5 5.5ZM18.5 2.5L18.8536 2.14645C18.6583 1.95118 18.3417 1.95118 18.1464 2.14645L18.5 2.5ZM16.6464 4.35355L19.6464 7.35355L20.3536 6.64645L17.3536 3.64645L16.6464 4.35355ZM20.3536 7.35355L21.8536 5.85355L21.1464 5.14645L19.6464 6.64645L20.3536 7.35355ZM21.8536 5.14645L18.8536 2.14645L18.1464 2.85355L21.1464 5.85355L21.8536 5.14645ZM18.1464 2.14645L16.6464 3.64645L17.3536 4.35355L18.8536 2.85355L18.1464 2.14645Z" fill="white"/>
<path d="M5.00002 18.5C3.16668 18.8333 0.999988 20.6 2.99999 21C4.99999 21.4 11.0827 19.6593 13.5 19C19 17.5 16.5 21 13.5 21.5" stroke="white" stroke-opacity="0.8" stroke-width="2" stroke-linecap="round" stroke-dasharray="2 3"/>
</svg>
